<?xml version="1.0" encoding="UTF-8"?><svg id="Layer_1" xmlns="http://www.w3.org/2000/svg" viewBox="0 0 1885.28 431.17"><path d="M1850.78,130.99c-18.39,0-33.35-14.96-33.35-33.36s14.96-33.36,33.35-33.36,33.36,14.96,33.36,33.36-14.96,33.36-33.36,33.36ZM1850.78,69.3c-15.62,0-28.33,12.71-28.33,28.33s12.71,28.33,28.33,28.33,28.33-12.71,28.33-28.33-12.71-28.33-28.33-28.33Z"/><path d="M1857.26,107.8l-4.97-7.13c-.21.02-.52.03-.94.03h-5.49v7.09h-4.52v-24.34h10.01c2.11,0,3.95.35,5.51,1.04,1.56.7,2.76,1.69,3.6,2.99s1.25,2.84,1.25,4.62-.45,3.41-1.34,4.73-2.17,2.31-3.84,2.96l5.6,8h-4.87ZM1855.63,88.54c-1.02-.83-2.52-1.25-4.49-1.25h-5.28v9.7h5.28c1.97,0,3.46-.42,4.49-1.27,1.02-.85,1.53-2.05,1.53-3.6s-.51-2.75-1.53-3.58Z"/><path d="M690.16,337.63l-48.34-69.3c-2.03.23-5.07.34-9.13.34h-53.41v68.96h-43.94V101.01h97.35c20.5,0,38.37,3.38,53.58,10.14s26.88,16.45,34.99,29.07,12.17,27.61,12.17,44.96-4.34,33.13-13.01,45.97c-8.68,12.85-21.13,22.43-37.35,28.73l54.42,77.75h-47.33ZM674.27,150.36c-9.92-8.11-24.45-12.17-43.6-12.17h-51.38v94.31h51.38c19.15,0,33.69-4.11,43.6-12.34,9.91-8.22,14.87-19.89,14.87-34.99s-4.96-26.7-14.87-34.82h0Z"/><path d="M906.66,174.19c14.08,12.73,21.13,31.94,21.13,57.63v105.8h-39.89v-21.97c-5.19,7.89-12.57,13.92-22.14,18.09-9.58,4.17-21.13,6.25-34.65,6.25s-25.35-2.31-35.49-6.93-17.97-11.04-23.49-19.27c-5.53-8.22-8.28-17.52-8.28-27.89,0-16.23,6.03-29.24,18.09-39.04,12.05-9.8,31.04-14.71,56.96-14.71h46.65v-2.7c0-12.62-3.78-22.31-11.33-29.07-7.55-6.76-18.76-10.14-33.63-10.14-10.14,0-20.11,1.58-29.91,4.73-9.8,3.16-18.09,7.55-24.84,13.18l-16.57-30.76c9.47-7.21,20.84-12.73,34.14-16.56,13.29-3.83,27.38-5.75,42.25-5.75,26.59,0,46.93,6.37,61.02,19.1h-.02ZM868.13,301.97c8.22-4.84,14.03-11.77,17.41-20.79v-20.96h-43.61c-24.34,0-36.51,8-36.51,24,0,7.66,3.04,13.75,9.13,18.25,6.08,4.51,14.53,6.76,25.35,6.76s20-2.42,28.23-7.27h0Z"/><path d="M1129.08,166.59c13.86,7.66,24.73,18.48,32.62,32.45,7.89,13.98,11.83,30.08,11.83,48.34s-3.95,34.43-11.83,48.51c-7.89,14.09-18.76,24.96-32.62,32.62s-29.58,11.49-47.15,11.49c-24.34,0-43.6-8.11-57.8-24.34v87.55h-42.26v-246.08h40.23v23.66c6.98-8.56,15.6-14.98,25.86-19.27,10.25-4.28,21.58-6.42,33.97-6.42,17.58,0,33.29,3.83,47.15,11.49h0ZM1115.56,288.28c10.03-10.36,15.04-24,15.04-40.9s-5.02-30.54-15.04-40.9c-10.03-10.36-22.82-15.55-38.36-15.55-10.14,0-19.27,2.31-27.38,6.93s-14.53,11.21-19.27,19.77c-4.74,8.57-7.1,18.48-7.1,29.75s2.37,21.18,7.1,29.74c4.73,8.57,11.15,15.16,19.27,19.78,8.11,4.62,17.24,6.93,27.38,6.93,15.55,0,28.33-5.18,38.36-15.55Z"/><path d="M1215.78,120.11c-5.19-4.84-7.78-10.87-7.78-18.08s2.59-13.24,7.78-18.08c5.18-4.84,11.6-7.27,19.27-7.27s14.08,2.31,19.27,6.93c5.18,4.62,7.78,10.43,7.78,17.41,0,7.44-2.54,13.69-7.61,18.76s-11.55,7.6-19.44,7.6-14.09-2.42-19.27-7.27h0ZM1213.75,157.12h42.26v180.51h-42.26v-180.51h0Z"/><path d="M1488.22,86.81v250.82h-40.56v-23.32c-6.99,8.57-15.6,14.99-25.86,19.27s-21.58,6.42-33.97,6.42c-17.36,0-32.96-3.83-46.82-11.49s-24.73-18.53-32.62-32.62c-7.89-14.08-11.83-30.25-11.83-48.51s3.94-34.36,11.83-48.34c7.89-13.97,18.76-24.79,32.62-32.45s29.46-11.49,46.82-11.49c11.94,0,22.87,2.03,32.78,6.08,9.92,4.06,18.37,10.14,25.36,18.25v-92.62h42.25ZM1420.28,296.9c8.11-4.62,14.53-11.21,19.27-19.78,4.73-8.56,7.1-18.48,7.1-29.74s-2.37-21.18-7.1-29.75c-4.73-8.56-11.15-15.15-19.27-19.77-8.12-4.62-17.24-6.93-27.38-6.93s-19.27,2.31-27.38,6.93-14.53,11.21-19.27,19.77c-4.73,8.57-7.1,18.48-7.1,29.75s2.37,21.18,7.1,29.74c4.73,8.57,11.15,15.16,19.27,19.78s17.24,6.93,27.38,6.93,19.27-2.31,27.38-6.93Z"/><path d="M1797.52,361.29c-7.89,9.24-17.07,16.23-27.55,20.96-10.48,4.73-21.92,7.1-34.31,7.1-16.23,0-31.1-3.67-44.62-10.99-13.52-7.33-28.96-20-46.31-38.03-21.86-1.81-41.47-8.17-58.82-19.1-17.36-10.93-30.88-25.23-40.56-42.93-9.69-17.69-14.53-37.35-14.53-58.99,0-22.99,5.52-43.77,16.56-62.37,11.04-18.59,26.25-33.13,45.63-43.61s41.13-15.72,65.24-15.72,45.86,5.24,65.24,15.72c19.38,10.48,34.59,24.96,45.63,43.44,11.04,18.48,16.57,39.33,16.57,62.54,0,18.71-3.72,36-11.16,51.89-7.43,15.89-17.8,29.41-31.1,40.56-13.3,11.15-28.73,19.21-46.31,24.17,6.53,6.98,12.95,12.05,19.27,15.21,6.31,3.15,13.07,4.73,20.28,4.73,15.55,0,29.07-6.31,40.56-18.93l20.29,24.34h0ZM1585.91,262.08c7.21,12.73,17.12,22.65,29.75,29.74,12.62,7.1,26.81,10.65,42.59,10.65s29.97-3.55,42.59-10.65,22.53-17.01,29.74-29.74c7.21-12.73,10.82-26.99,10.82-42.76s-3.61-30.03-10.82-42.76-17.13-22.65-29.74-29.75c-12.63-7.1-26.82-10.65-42.59-10.65s-29.97,3.55-42.59,10.65c-12.63,7.1-22.54,17.02-29.75,29.75s-10.82,26.99-10.82,42.76,3.6,30.03,10.82,42.76Z"/><rect x="1.46" y="161.48" width="383.89" height="154.55" rx="45.14" ry="45.14" style="fill:#0573e4;"/><rect x="116.14" y="46.81" width="154.55" height="383.89" rx="45.14" ry="45.14" style="fill:#0573e4;"/><circle cx="193.41" cy="101.01" r="100.97" style="fill:#0573e4;"/><path d="M183.37,235.65c-2.38-65.26,70.89-90.28,109.96-94.39l2.11,19.99c-.94.1-94.28,10.84-91.99,73.67l-20.09.73h.01Z" style="fill:#e4f1fa;"/><path d="M193.36,278.98c-17.33,0-31.43-14.1-31.43-31.43s14.1-31.43,31.43-31.43,31.43,14.1,31.43,31.43-14.1,31.43-31.43,31.43h0ZM193.36,236.21c-6.25,0-11.33,5.08-11.33,11.33s5.08,11.33,11.33,11.33,11.33-5.08,11.33-11.33-5.08-11.33-11.33-11.33h0Z" style="fill:#e4f1fa;"/><path d="M143.32,190.65c-8.7,0-37-3.2-63.67-41.57-3.17-4.56-2.04-10.82,2.52-13.99,4.56-3.16,10.82-2.04,13.99,2.52,23.95,34.46,46.66,33.02,47.61,32.94,5.52-.65,10.42,3.29,11.08,8.8.66,5.51-3.37,10.52-8.88,11.18-.21.03-1.13.12-2.65.12Z" style="fill:#e4f1fa;"/></svg>